<?xml version="1.0" encoding="UTF-8"?>
<svg id="_Слой_1" data-name="Слой 1" xmlns="http://www.w3.org/2000/svg" viewBox="0 0 192 78">
  <defs>
    <style>
      .cls-1 {
        fill: #15191b;
      }

      .cls-2 {
        fill: #fff;
      }

      .cls-3 {
        fill: #38d6ba;
      }
    </style>
  </defs>
  <rect class="cls-3" x="12" y="13" width="47" height="47" rx="10" ry="10"/>
  <path class="cls-1" d="M23,28.34v-6.34h25v6.34h-8.65v22.66h-7.7v-22.66h-8.65Z"/>
  <path class="cls-2" d="M56.14,51l-6.16-21.82h5.24l3.84,15.34h.2l3.92-15.34h5.18l3.92,15.26h.21l3.78-15.26h5.26l-6.18,21.82h-5.36l-4.09-14.74h-.3l-4.09,14.74h-5.37ZM85.12,51v-21.82h5.14v21.82h-5.14ZM87.7,26.09c-.81,0-1.52-.27-2.1-.81-.59-.55-.88-1.21-.88-1.97s.29-1.43.88-1.97c.59-.55,1.29-.82,2.1-.82s1.52.27,2.1.82c.59.54.88,1.2.88,1.97s-.29,1.43-.88,1.97c-.58.54-1.28.81-2.1.81ZM100.69,38.22v12.78h-5.14v-21.82h4.91v3.71h.26c.5-1.22,1.3-2.19,2.4-2.91,1.11-.72,2.48-1.08,4.1-1.08,1.51,0,2.82.32,3.93.97,1.13.64,2,1.58,2.61,2.8.62,1.22.93,2.7.92,4.45v13.89h-5.14v-13.1c0-1.46-.38-2.6-1.14-3.42-.75-.82-1.78-1.24-3.11-1.24-.9,0-1.7.2-2.4.6-.69.39-1.24.95-1.63,1.69-.39.74-.58,1.63-.58,2.68ZM120.15,51v-29.09h11.14c2.1,0,3.85.33,5.24.99,1.4.65,2.45,1.55,3.14,2.68.7,1.14,1.05,2.42,1.05,3.86,0,1.18-.23,2.2-.68,3.04-.46.83-1.07,1.51-1.83,2.03-.77.52-1.62.89-2.57,1.12v.28c1.03.06,2.02.37,2.97.95.96.57,1.74,1.37,2.34,2.41.61,1.04.91,2.3.91,3.78s-.36,2.86-1.09,4.06c-.73,1.19-1.83,2.14-3.29,2.83s-3.31,1.04-5.54,1.04h-11.77ZM125.42,46.6h5.67c1.91,0,3.29-.36,4.13-1.09.85-.74,1.28-1.69,1.28-2.84,0-.86-.21-1.64-.64-2.33-.43-.7-1.03-1.25-1.82-1.65-.79-.41-1.72-.61-2.81-.61h-5.81v8.52ZM125.42,34.28h5.21c.91,0,1.73-.17,2.46-.5.73-.34,1.3-.82,1.72-1.43.43-.62.64-1.36.64-2.22,0-1.13-.4-2.05-1.19-2.78-.79-.73-1.96-1.09-3.51-1.09h-5.33v8.03ZM146.21,51v-21.82h5.14v21.82h-5.14ZM148.8,26.09c-.82,0-1.52-.27-2.1-.81-.59-.55-.88-1.21-.88-1.97s.29-1.43.88-1.97c.59-.55,1.29-.82,2.1-.82s1.52.27,2.1.82c.59.54.88,1.2.88,1.97s-.29,1.43-.88,1.97c-.58.54-1.28.81-2.1.81ZM164.74,51.38c-1.71,0-3.25-.44-4.6-1.32-1.35-.88-2.42-2.16-3.21-3.84-.79-1.68-1.18-3.71-1.18-6.11s.4-4.47,1.19-6.14c.8-1.68,1.89-2.94,3.25-3.79,1.36-.86,2.88-1.29,4.56-1.29,1.28,0,2.33.22,3.15.65.82.43,1.48.94,1.96,1.55.48.6.86,1.16,1.12,1.69h.21v-10.88h5.16v29.09h-5.06v-3.44h-.31c-.27.53-.65,1.09-1.15,1.69-.5.59-1.16,1.09-1.99,1.51-.82.42-1.86.62-3.11.62ZM166.17,47.16c1.09,0,2.02-.29,2.78-.88.77-.6,1.35-1.43,1.75-2.49.4-1.06.6-2.3.6-3.71s-.2-2.64-.6-3.68c-.39-1.04-.97-1.85-1.73-2.43-.76-.58-1.69-.87-2.8-.87s-2.1.3-2.87.89c-.77.6-1.35,1.42-1.73,2.47-.39,1.05-.58,2.25-.58,3.61s.19,2.58.58,3.65c.4,1.06.98,1.9,1.75,2.51.78.61,1.73.91,2.86.91Z"/>
  <path class="cls-3" d="M29.04,50.73c.16-.5.32-.99.47-1.49,2.84-8.92,5.69-17.84,8.53-26.75.16-.5.32-.99.47-1.49-.64-.18-1.28-.36-1.92-.55-.13.5-.25,1.01-.38,1.51-2.27,9.08-4.54,18.16-6.8,27.25-.13.5-.25,1.01-.38,1.51Z"/>
</svg>